# xmcd CD database file
#
# Track frame offsets:
#	150
#	22250
#	37400
#	53150
#	71450
#	83900
#	96950
#	113950
#	126275
#	139925
#	159800
#	181550
#
# Disc length: 2654 seconds
#
# Revision: 0
# Processed by: cddbd v1.5.2PL0 Copyright (c) Steve Scherf et al.
# Submitted via: ACXtractor (MTCDDB.DLL V2003.07.15)
#
DISCID=a40a5c0c
DTITLE=Christina George - Cottage in the Country
DYEAR=2008
DGENRE=Country
TTITLE0=Fields of Athenry
TTITLE1=Is There a Way
TTITLE2=Just out of Reach
TTITLE3=She Broke her Promise
TTITLE4=Walkin' Talkin' Crying
TTITLE5=I'll Paint the Town
TTITLE6=Lion in the Winter
TTITLE7=Everybody's Reaching out for Someone
TTITLE8=If I Had Your Heart
TTITLE9=Cottage in the Country
TTITLE10=How Many Hearts
TTITLE11=I'll Accept the Rose
EXTD=ID3G:   2 YEAR: 2008
EXTT0=
EXTT1=
EXTT2=
EXTT3=
EXTT4=
EXTT5=
EXTT6=
EXTT7=
EXTT8=
EXTT9=
EXTT10=
EXTT11=
PLAYORDER=
